<mxfile host="65bd71144e">
    <diagram id="s3NfUufGN-GpZb24HnOM" name="Page-1">
        <mxGraphModel dx="1445" dy="761" grid="1" gridSize="10" guides="1" tooltips="1" connect="1" arrows="1" fold="1" page="1" pageScale="1" pageWidth="850" pageHeight="1100" math="0" shadow="0">
            <root>
                <mxCell id="0"/>
                <mxCell id="1" parent="0"/>
                <mxCell id="3" value="&#xa;flowchart TD&#xa;    %% Main flow&#xa;    Start([Learner Starts Assignment]) --&gt; L1[View Assignment Question]&#xa;    L1 --&gt; L2[Select File to Upload]&#xa;    &#xa;    %% File Upload Process&#xa;    subgraph UploadProcess[File Upload Process]&#xa;        direction TB&#xa;        F1[File Selected on Frontend] --&gt; F2[Request Presigned URL]&#xa;        F2 --&gt; F3[Next.js Route: getPresignedUrl]&#xa;        F3 --&gt; F4[Generate Unique File Key]&#xa;        F4 --&gt; F5[Get Presigned URL from IBM COS]&#xa;        F5 --&gt; F6[Return URL, Key, Bucket to Frontend]&#xa;        F6 --&gt; F7[Upload File Directly to IBM COS]&#xa;        F7 --&gt; F8[File Upload Complete]&#xa;        F8 --&gt; F9[Store File Metadata in Frontend Store]&#xa;    end&#xa;    &#xa;    L2 --&gt; UploadProcess&#xa;    UploadProcess --&gt; L3[Continue with Assignment]&#xa;    L3 --&gt; L4[Complete Other Questions]&#xa;    L4 --&gt; L5[Submit Assignment]&#xa;    &#xa;    %% Backend Processing&#xa;    L5 --&gt; B1[Submit to NestJS Backend]&#xa;    &#xa;    subgraph BackendProcess[Backend Processing]&#xa;        direction TB&#xa;        B2[Process Assignment Data] --&gt; B3[Retrieve File Reference]&#xa;        B3 --&gt; B4[Evaluate Uploaded Files]&#xa;        B4 --&gt; B5[Apply Scoring Rules]&#xa;        B5 --&gt; B6[Generate Feedback]&#xa;        B6 --&gt; B7[Store Results in Database]&#xa;    end&#xa;    &#xa;    B1 --&gt; BackendProcess&#xa;    BackendProcess --&gt; R1[Return Grading Results]&#xa;    R1 --&gt; R2[Display Feedback to Learner]&#xa;    &#xa;    %% IBM Cloud Object Storage&#xa;    F7 -.-&gt; S1[(IBM Cloud Object Storage)]&#xa;    B4 -.-&gt; S1&#xa;    &#xa;    %% Styling&#xa;    classDef primary fill:#d8e8d5,stroke:#82b366,stroke-width:2px,color:#2D5E2E&#xa;    classDef process fill:#ffe6cc,stroke:#d79b00,stroke-width:2px,color:#d79b00&#xa;    classDef backend fill:#e1d5e7,stroke:#9673a6,stroke-width:2px,color:#9673a6&#xa;    classDef storage fill:#dae8fc,stroke:#6c8ebf,stroke-width:2px,color:#6c8ebf&#xa;    classDef results fill:#d5e8d4,stroke:#82b366,stroke-width:2px,color:#82b366,font-weight:bold&#xa;    classDef endpoint fill:#f5f5f5,stroke:#666666,stroke-width:2px,color:#333333,font-weight:bold,border-radius:10px&#xa;    &#xa;    class Start,R2 endpoint&#xa;    class L1,L2,L3,L4,L5 primary&#xa;    class UploadProcess process&#xa;    class BackendProcess backend&#xa;    class S1 storage&#xa;    class R1,R2 results" style="shadow=0;dashed=0;align=left;strokeWidth=1;shape=mxgraph.mermaid.abstract.mermaid;labelBackgroundColor=#ffffff;noLabel=1;theme=default;" vertex="1" parent="1">
                    <mxGeometry x="90" width="700" height="740" as="geometry"/>
                </mxCell>
            </root>
        </mxGraphModel>
    </diagram>
</mxfile>